<?xml version="1.0" encoding="utf-8"?>
<!-- Generator: Adobe Illustrator 25.0.0, SVG Export Plug-In . SVG Version: 6.00 Build 0)  -->
<svg version="1.1" id="Capa_1" xmlns="http://www.w3.org/2000/svg" xmlns:xlink="http://www.w3.org/1999/xlink" x="0px" y="0px"
	 viewBox="0 0 100 100" style="enable-background:new 0 0 100 100;" xml:space="preserve">
<style type="text/css">
	.st0{fill:#4A4B80;}
	.st1{fill:none;stroke:#F4D684;stroke-width:8.1953;stroke-linejoin:round;stroke-miterlimit:10;}
</style>
<rect class="st0" width="100" height="100"/>
<path class="st1" d="M80.4,30.9L51.2,14.1L21.5,31.2l-0.5,0.3v30.9c-1.2,0.4-2.1,1.3-2.3,2.6c0,0,0,0,0,0c-0.4,1.9,0.8,3.7,2.7,4
	c0.2,0,0.5,0.1,0.7,0.1c1.9,0,3.4-1.5,3.4-3.5c0-1.5-1-2.8-2.4-3.3V32.8l28.2-16.3l28.2,16.3v32.5L54.2,79.8c-0.6-0.6-1.5-1-2.4-1v0
	c-0.9,0-1.8,0.3-2.5,1c-1.4,1.4-1.4,3.6-0.1,5c0.6,0.7,1.5,1.1,2.5,1.1h0.1c2,0,3.6-1.6,3.6-3.5c0-0.3,0-0.5-0.1-0.8l25.2-14.5
	l1-0.7v-1.2V32.8v-1.2L80.4,30.9z"/>
</svg>
