<?xml version="1.0" encoding="utf-8"?>
<!-- Generator: Adobe Illustrator 25.0.0, SVG Export Plug-In . SVG Version: 6.00 Build 0)  -->
<svg version="1.1" id="Capa_1" xmlns="http://www.w3.org/2000/svg" xmlns:xlink="http://www.w3.org/1999/xlink" x="0px" y="0px"
	 viewBox="0 0 50 33" style="enable-background:new 0 0 50 33;" xml:space="preserve">
<style type="text/css">
	.st0{fill:#F4D684;}
</style>
<g>
	<g>
		<line class="st0" x1="8.6" y1="5.5" x2="45.9" y2="5.5"/>
		<path class="st0" d="M45.9,7.5H8.6c-1.1,0-2-0.9-2-2s0.9-2,2-2h37.3c1.1,0,2,0.9,2,2S47,7.5,45.9,7.5z"/>
	</g>
	<g>
		<line class="st0" x1="8.6" y1="16.8" x2="45.9" y2="16.8"/>
		<path class="st0" d="M45.9,18.8H8.6c-1.1,0-2-0.9-2-2s0.9-2,2-2h37.3c1.1,0,2,0.9,2,2S47,18.8,45.9,18.8z"/>
	</g>
	<g>
		<line class="st0" x1="8.6" y1="28" x2="45.9" y2="28"/>
		<path class="st0" d="M45.9,30H8.6c-1.1,0-2-0.9-2-2s0.9-2,2-2h37.3c1.1,0,2,0.9,2,2S47,30,45.9,30z"/>
	</g>
</g>
</svg>
