<?xml version="1.0" encoding="utf-8"?>
<!-- Generator: Adobe Illustrator 25.0.0, SVG Export Plug-In . SVG Version: 6.00 Build 0)  -->
<svg version="1.1" id="Capa_1" xmlns="http://www.w3.org/2000/svg" xmlns:xlink="http://www.w3.org/1999/xlink" x="0px" y="0px"
	 viewBox="0 0 898.4 358.9" style="enable-background:new 0 0 898.4 358.9;" xml:space="preserve">
<style type="text/css">
	.st0{fill:#F4D684;}
</style>
<path class="st0" d="M511.7,313.4h8.2c6.8,0,11.4,4.5,11.4,13c0,9-4.1,14.3-11.8,14.3h-7.8L511.7,313.4z M515.2,337.8h4.2
	c5.8,0,8.4-4.1,8.4-11.3c0-6.7-3.1-10.1-8.3-10.1h-4.2V337.8z"/>
<path class="st0" d="M536,320.5h3.4v20.1H536V320.5z M536,311.9h3.4v4.3H536V311.9z"/>
<path class="st0" d="M546.4,334.8c0.2,2.1,2,3.7,4.2,3.6c2.5,0,3.6-1.4,3.6-3.1s-1.2-2.8-4.4-3.7c-4.8-1.4-6-3.1-6-5.9
	s1.8-5.6,6.6-5.6s6.6,2.8,6.8,5.8h-3.3c-0.1-1.8-1.6-3.3-3.5-3.2c0,0-0.1,0-0.1,0c-2.1,0-3.1,1.1-3.1,2.7s0.7,2.3,3.9,3.2
	c4.8,1.4,6.5,3.1,6.5,6.4c0,3.8-2.8,6-7.1,6s-7.1-2.1-7.4-6.2L546.4,334.8z"/>
<path class="st0" d="M559.2,320.5h3.1v-5.7h3.4v5.7h3.9v2.8h-3.9v12.6c0,1.6,0.4,2.3,2,2.3c0.5,0,1,0,1.5-0.1v2.5
	c-0.9,0.2-1.7,0.4-2.6,0.4c-2.9,0-4.3-1.1-4.3-4.5v-13.2h-3V320.5z"/>
<path class="st0" d="M572.6,327.3c0-3.2,0-5.7-0.1-6.9h3.3c0.1,0.8,0.1,2,0.1,3.9c0.9-2.6,3.4-4.3,6.2-4.3v3.6
	c-4.2,0.1-6.1,2.5-6.1,6.7v10.2h-3.4V327.3z"/>
<path class="st0" d="M585.3,320.5h3.4v20.1h-3.4V320.5z M585.3,311.9h3.4v4.3h-3.4V311.9z"/>
<path class="st0" d="M594.1,311.9h3.4v11.3c1.1-2,3.3-3.3,5.7-3.1c4.6,0,7.2,3.9,7.2,9.9c0,6.2-2.4,11-7.8,11c-3,0-4.4-1.3-5.1-2.8
	c0,0.8-0.1,1.6-0.1,2.5H594c0-1.1,0.1-3.3,0.1-5.7V311.9z M606.9,330.1c0-4.4-1.5-7-4.7-7c-3.7,0-4.9,2.6-4.9,7.4s1,7.7,4.8,7.7
	C605.4,338.1,606.9,335,606.9,330.1z"/>
<path class="st0" d="M629.3,335c0,2.6,0,4.7,0.1,5.7h-3.2c-0.1-1-0.2-2-0.2-3c-0.9,2.1-2.8,3.4-5.6,3.4c-3,0-5.9-1.5-5.9-6.7v-13.8
	h3.4v13.1c0,2.5,0.8,4.5,3.6,4.5s4.4-1.7,4.4-6v-11.5h3.4L629.3,335z"/>
<path class="st0" d="M632.5,320.5h3.1v-5.7h3.4v5.7h3.9v2.8h-3.9v12.6c0,1.6,0.4,2.3,2,2.3c0.5,0,1,0,1.5-0.1v2.5
	c-0.9,0.2-1.7,0.4-2.6,0.4c-2.9,0-4.3-1.1-4.3-4.5v-13.2h-3V320.5z"/>
<path class="st0" d="M646.2,320.5h3.4v20.1h-3.4V320.5z M646.2,311.9h3.4v4.3h-3.4V311.9z"/>
<path class="st0" d="M670.6,330.3c0,6.2-2.5,10.7-8.5,10.7s-8.3-4.7-8.3-10.6c0-5.7,2.9-10.2,8.5-10.2
	C667.7,320.1,670.6,324.2,670.6,330.3z M657.2,330.3c0,4.8,1.7,7.8,5,7.8s4.9-3,4.9-7.9c0-4.5-1.6-7.4-5-7.4
	S657.2,325.7,657.2,330.3L657.2,330.3z"/>
<path class="st0" d="M674.8,326.8c0-4.2,0-5.4-0.1-6.3h3.3c0,0.4,0.1,2,0.1,3c1-2.2,3.2-3.5,5.6-3.4c3.6,0,6.1,2,6.1,7.1v13.4h-3.4
	v-12.8c0-2.7-0.9-4.8-3.7-4.8c-3.2,0-4.6,2.3-4.6,6.4v11.1h-3.4V326.8z"/>
<polygon class="st0" points="747.2,0 601.2,84.3 455.2,0 309.2,84.3 163.2,0 14.7,85.8 12.1,87.3 12.1,265 22.5,259 22.5,93.3 
	163.2,12 304,93.3 304,255.8 163.4,337 160.5,335 160.5,347.6 163.2,349.1 309.2,264.9 457.9,350.7 457.9,338.7 314.4,255.8 
	314.4,93.3 455.2,12 596,93.3 596,130.5 587.1,130.5 587.1,140.9 596,140.9 596,141.2 606.4,141.2 606.4,140.9 614.5,140.9 
	614.5,130.5 606.4,130.5 606.4,93.3 747.2,12 888,93.3 888,255.8 745.8,337.9 744.5,338.7 744.5,350.7 898.4,261.9 898.4,87.3 "/>
<polygon class="st0" points="587.1,217.4 596,217.4 596,260.2 606.4,260.1 606.4,217.4 614.5,217.4 614.5,206.9 587.1,206.9 "/>
<path class="st0" d="M593.5,178.7c-1.6,1.5-2.5,3.6-2.4,5.7c-0.1,2.1,0.6,4.1,2,5.7c3.1,2.7,7.8,2.7,10.8-0.1
	c1.6-1.7,2.8-3.8,3.4-6.2c0.8-3.2,1.2-6.5,1.2-9.8h3.9c0.1,4-0.5,7.9-1.7,11.7c-0.9,2.9-2.6,5.5-4.9,7.4c-2.2,1.7-5,2.6-7.8,2.5
	c-2,0.1-4-0.4-5.8-1.3c-1.6-0.9-2.9-2.2-3.7-3.9c-0.9-1.9-1.3-4-1.3-6.1c-0.1-2.9,0.9-5.6,2.9-7.7c2.2-2,5.1-3.2,8.1-3.3l2.2,3.3
	C597.3,176.7,595,177.4,593.5,178.7z M595.7,176.1c-1-1.3-1.8-2.7-2.5-4.2c-0.7-1.5-1.2-3-1.5-4.5c-0.3-1.6-0.5-3.2-0.5-4.8
	c0-3.3,0.8-5.8,2.3-7.4s3.8-2.5,6.8-2.5s5.2,0.8,6.7,2.4s2.2,4.1,2.2,7.3v2.9H605v-2.9c0.1-1.5-0.3-3-1.2-4.3c-2-1.9-5.2-1.9-7.2,0
	c-0.9,1.3-1.3,2.8-1.2,4.4c0,1.4,0.2,2.7,0.5,4.1c0.3,1.4,0.8,2.7,1.4,4c0.7,1.4,1.4,2.6,2.3,3.9l15.3,20.9h-5.2L595.7,176.1z"/>
<path class="st0" d="M120.4,90.8h23v165.1h-23V90.8z M131.2,164.1h30.2c3.1,0.1,6.2-0.6,9.1-1.9c2.4-1.2,4.4-3.2,5.7-5.6
	c1.4-2.8,2.1-5.8,2-8.9v-17.1c0.1-3.3-0.6-6.6-2-9.5c-1.2-2.6-3.2-4.7-5.7-6.1c-2.8-1.5-5.9-2.2-9.1-2.1h-30.2v-22h28.4
	c8.8,0,16.3,1.5,22.6,4.4c6,2.7,11.1,7.2,14.4,12.8c3.3,5.6,5,12.4,5,20.2v19.3c0,8.1-1.7,15-5,20.8c-3.3,5.8-8.4,10.4-14.4,13.2
	c-6.3,3-13.8,4.5-22.6,4.5h-28.4V164.1z M158.2,181l21.7-5.2l26.3,80.1H181L158.2,181z"/>
<path class="st0" d="M434.3,253.1c-5.7-2.9-10.6-7.2-14.2-12.5l17-14.1c2,2.7,4.7,5,7.7,6.7c2.8,1.6,6,2.4,9.2,2.4
	c4.4,0,7.8-1.4,10.2-4.2c2.4-2.8,3.6-6.8,3.6-12V90.9h22.5v129.6c0,7.8-1.5,14.5-4.4,20c-2.8,5.4-7.2,9.9-12.6,12.7
	c-5.5,2.9-12.2,4.4-20,4.4C446.8,257.6,440.2,256.1,434.3,253.1z"/>
<path class="st0" d="M702.8,90.9h22.5l21.9,126.6l21.9-126.6h22.5l-33.1,165H736L702.8,90.9z"/>
<path class="st0" d="M767.2,329.9c-5.4-8.1-16.4-10.3-24.5-4.9c-8.1,5.4-10.3,16.4-4.9,24.5c2.6,3.9,6.7,6.6,11.3,7.5
	c1.1,0.2,2.3,0.4,3.5,0.4c9.8,0,17.7-8,17.7-17.7C770.2,336.2,769.1,332.8,767.2,329.9z"/>
<path class="st0" d="M454.9,322.4c-9.5-2-18.9,4-21,13.6s4,18.9,13.6,21c0.2,0,0.4,0.1,0.5,0.1c1.1,0.2,2.3,0.4,3.5,0.4
	c9.8-0.1,17.6-8.1,17.5-17.8C469,331.3,463.1,324.1,454.9,322.4L454.9,322.4z"/>
<path class="st0" d="M166.3,323.5c-4.7-0.1-9.2,1.7-12.6,4.9c-7,6.8-7.2,18-0.4,25c3.2,3.4,7.7,5.3,12.4,5.4h0.3
	c9.8,0.1,17.8-7.8,17.8-17.5C183.9,331.6,176.1,323.6,166.3,323.5L166.3,323.5z"/>
<path class="st0" d="M20.5,240.9C11.2,239,2.2,245,0.3,254.3c0,0,0,0,0,0c-1.8,9.3,4.2,18.3,13.5,20.2c1.1,0.2,2.3,0.3,3.4,0.3
	c9.5,0,17.2-7.7,17.1-17.2C34.4,249.5,28.6,242.5,20.5,240.9z"/>
<path class="st0" d="M604.7,241.3c-9.6-1.9-18.9,4.3-20.8,13.9c-1.9,9.6,4.3,18.9,13.9,20.8s18.9-4.3,20.8-13.9
	c0.9-4.6,0-9.3-2.6-13.2C613.3,245,609.3,242.2,604.7,241.3z"/>
</svg>
