<svg id="Capa_1" data-name="Capa 1" xmlns="http://www.w3.org/2000/svg" viewBox="0 0 898.36 358.91"><defs><style>.cls-1{fill:#4a4b80;}</style></defs><path class="cls-1" d="M562.55,357.53h8.22c6.83,0,11.41,4.45,11.41,13,0,9-4.09,14.28-11.85,14.28h-7.78Zm3.5,24.37h4.15c5.76,0,8.36-4.1,8.36-11.31,0-6.66-3.08-10.15-8.31-10.15h-4.2Z" transform="translate(-50.82 -44.13)"/><path class="cls-1" d="M586.83,364.62h3.39v20.15h-3.39Zm0-8.55h3.38v4.3h-3.38Z" transform="translate(-50.82 -44.13)"/><path class="cls-1" d="M597.22,378.92a3.9,3.9,0,0,0,4.17,3.57c2.54,0,3.61-1.38,3.61-3.08s-1.2-2.76-4.38-3.7c-4.76-1.42-6-3.14-6-5.89s1.77-5.58,6.58-5.58,6.58,2.81,6.78,5.81h-3.31a3.33,3.33,0,0,0-3.61-3.17c-2.09,0-3.07,1.08-3.07,2.68s.74,2.27,3.93,3.19c4.84,1.41,6.5,3.1,6.5,6.36,0,3.76-2.83,6-7.12,6s-7.08-2.14-7.4-6.21Z" transform="translate(-50.82 -44.13)"/><path class="cls-1" d="M610,364.62h3.09v-5.69h3.37v5.69h3.87v2.79h-3.87V380c0,1.57.38,2.31,2,2.31a8.45,8.45,0,0,0,1.48-.12v2.53a8.72,8.72,0,0,1-2.62.35c-2.87,0-4.27-1.12-4.27-4.46V367.41H610Z" transform="translate(-50.82 -44.13)"/><path class="cls-1" d="M623.42,371.47c0-3.23,0-5.7-.06-6.85h3.3c.06.83.09,2,.09,3.91a6.37,6.37,0,0,1,6.17-4.26v3.57c-4.22.13-6.11,2.54-6.11,6.74v10.19h-3.39Z" transform="translate(-50.82 -44.13)"/><path class="cls-1" d="M636.08,364.62h3.39v20.15h-3.39Zm0-8.55h3.38v4.3h-3.38Z" transform="translate(-50.82 -44.13)"/><path class="cls-1" d="M644.92,356.07h3.38v11.26a6,6,0,0,1,5.67-3.09c4.64,0,7.24,3.86,7.24,9.86,0,6.18-2.36,11-7.85,11-3,0-4.4-1.31-5.1-2.8,0,.76-.06,1.64-.13,2.45h-3.28c0-1.13.07-3.26.07-5.69Zm12.83,18.15c0-4.37-1.5-7-4.68-7-3.67,0-4.94,2.56-4.94,7.36s1,7.67,4.8,7.67C656.23,382.21,657.75,379.14,657.75,374.22Z" transform="translate(-50.82 -44.13)"/><path class="cls-1" d="M680.15,379.09c0,2.57,0,4.7.06,5.68H677a20.55,20.55,0,0,1-.16-3c-.9,2.11-2.82,3.35-5.58,3.35-3,0-5.87-1.46-5.87-6.7V364.62h3.38v13.12c0,2.55.78,4.46,3.56,4.46s4.44-1.73,4.44-6.05V364.62h3.43Z" transform="translate(-50.82 -44.13)"/><path class="cls-1" d="M683.3,364.62h3.09v-5.69h3.37v5.69h3.87v2.79h-3.87V380c0,1.57.38,2.31,2,2.31a8.37,8.37,0,0,0,1.48-.12v2.53a8.72,8.72,0,0,1-2.62.35c-2.87,0-4.27-1.12-4.27-4.46V367.41H683.3Z" transform="translate(-50.82 -44.13)"/><path class="cls-1" d="M697,364.62h3.38v20.15H697Zm0-8.55h3.38v4.3H697Z" transform="translate(-50.82 -44.13)"/><path class="cls-1" d="M721.4,374.4c0,6.17-2.53,10.73-8.51,10.73s-8.33-4.68-8.33-10.64c0-5.73,2.86-10.25,8.55-10.25C718.54,364.24,721.4,368.36,721.4,374.4Zm-13.37.06c0,4.81,1.71,7.84,5,7.84s4.88-3,4.88-7.87c0-4.54-1.64-7.36-5-7.36S708,369.87,708,374.46Z" transform="translate(-50.82 -44.13)"/><path class="cls-1" d="M725.62,370.91c0-4.18,0-5.4-.07-6.29h3.31c0,.41.14,2,.12,3a5.75,5.75,0,0,1,5.6-3.35c3.56,0,6.08,2,6.08,7.15v13.38h-3.41V372c0-2.74-.9-4.78-3.66-4.78-3.25,0-4.58,2.32-4.58,6.44v11.14h-3.39Z" transform="translate(-50.82 -44.13)"/><polygon class="cls-1" points="747.18 0 601.2 84.28 455.21 0 309.24 84.28 163.25 0 14.68 85.78 12.07 87.27 12.07 265.01 22.47 259 22.47 93.29 163.25 12.01 304.03 93.29 304.03 255.84 163.41 337.04 160.47 334.95 160.51 347.57 163.25 349.13 309.23 264.86 457.94 350.71 457.94 338.7 314.44 255.84 314.44 93.29 455.21 12.01 595.99 93.29 595.99 130.54 587.08 130.54 587.08 140.95 595.99 140.95 595.99 141.2 606.4 141.2 606.4 140.95 614.53 140.95 614.53 130.54 606.4 130.54 606.4 93.29 747.18 12.01 887.96 93.29 887.96 255.84 745.83 337.91 744.46 338.7 744.46 350.71 898.36 261.85 898.36 87.28 747.18 0"/><polygon class="cls-1" points="587.08 217.35 595.99 217.35 595.99 260.16 606.4 260.07 606.4 217.35 614.53 217.35 614.53 206.94 587.08 206.94 587.08 217.35"/><path class="cls-1" d="M644.28,222.85a7.17,7.17,0,0,0-2.36,5.74,7.8,7.8,0,0,0,2,5.69,8.14,8.14,0,0,0,10.84-.11,13.4,13.4,0,0,0,3.36-6.16,36.34,36.34,0,0,0,1.15-9.76h3.9a35.68,35.68,0,0,1-1.7,11.7,15.8,15.8,0,0,1-4.94,7.39,12.28,12.28,0,0,1-7.81,2.53,11.88,11.88,0,0,1-5.83-1.33,8.78,8.78,0,0,1-3.69-3.86,13.56,13.56,0,0,1-1.27-6.09,10.51,10.51,0,0,1,2.86-7.72,12.4,12.4,0,0,1,8.07-3.32l2.16,3.26Q646.63,220.81,644.28,222.85Zm2.24-2.65A24.36,24.36,0,0,1,644,216a21.88,21.88,0,0,1-1.5-4.53,23.16,23.16,0,0,1-.5-4.81c0-3.3.76-5.78,2.26-7.43s3.77-2.48,6.78-2.48,5.23.81,6.73,2.43,2.24,4.07,2.24,7.33v2.92h-4.19v-2.92a6.52,6.52,0,0,0-1.2-4.28,5.22,5.22,0,0,0-7.21,0,6.75,6.75,0,0,0-1.21,4.4,18.2,18.2,0,0,0,.47,4.09,19.22,19.22,0,0,0,1.39,4,23.73,23.73,0,0,0,2.34,3.85l15.3,20.89h-5.19Z" transform="translate(-50.82 -44.13)"/><path class="cls-1" d="M171.19,134.91h23V300h-23ZM182,208.19h30.17a19.71,19.71,0,0,0,9.08-1.92,13.34,13.34,0,0,0,5.73-5.62,18.6,18.6,0,0,0,2-8.9V174.62a21.12,21.12,0,0,0-2-9.53,14,14,0,0,0-5.73-6.07,18.31,18.31,0,0,0-9.08-2.1H182v-22h28.36q13.15,0,22.57,4.37a31.74,31.74,0,0,1,14.41,12.82q5,8.44,5,20.25v19.28q0,12.15-5,20.82a32.38,32.38,0,0,1-14.41,13.21q-9.42,4.54-22.57,4.54H182Zm27,16.91,21.66-5.22L257,300H231.77Z" transform="translate(-50.82 -44.13)"/><path class="cls-1" d="M485.16,297.24a37.91,37.91,0,0,1-14.23-12.47l17-14.07a24.11,24.11,0,0,0,7.66,6.69,19,19,0,0,0,9.24,2.38q6.59,0,10.21-4.25c2.42-2.84,3.63-6.82,3.63-12V135h22.47V264.57q0,11.69-4.37,20a29.57,29.57,0,0,1-12.59,12.7q-8.24,4.36-20,4.37A41.24,41.24,0,0,1,485.16,297.24Z" transform="translate(-50.82 -44.13)"/><path class="cls-1" d="M753.64,135h22.47L798,261.63,819.89,135h22.46L809.23,300H786.77Z" transform="translate(-50.82 -44.13)"/><path class="cls-1" d="M818,374.07a17.69,17.69,0,1,0-18.15,27.17,17.19,17.19,0,0,0,3.48.35A17.69,17.69,0,0,0,818,374.07Z" transform="translate(-50.82 -44.13)"/><path class="cls-1" d="M505.77,366.56a17.68,17.68,0,1,0-6.88,34.68,17.12,17.12,0,0,0,3.48.35,17.68,17.68,0,0,0,3.4-35Z" transform="translate(-50.82 -44.13)"/><path class="cls-1" d="M217.14,367.67a17.94,17.94,0,0,0-12.6,4.94A17.68,17.68,0,0,0,216.47,403h.34a17.68,17.68,0,0,0,.33-35.36Z" transform="translate(-50.82 -44.13)"/><path class="cls-1" d="M71.36,285a17.17,17.17,0,0,0-20.21,13.51,17.21,17.21,0,0,0,13.51,20.21,17.78,17.78,0,0,0,3.39.33A17.19,17.19,0,0,0,71.36,285Z" transform="translate(-50.82 -44.13)"/><path class="cls-1" d="M655.49,285.47A17.66,17.66,0,1,0,666.75,293,17.56,17.56,0,0,0,655.49,285.47Z" transform="translate(-50.82 -44.13)"/></svg>